<?xml version="1.0" encoding="iso-8859-1"?>
<!-- Generator: Adobe Illustrator 19.0.0, SVG Export Plug-In . SVG Version: 6.00 Build 0)  -->
<svg version="1.1" id="Capa_1" xmlns="http://www.w3.org/2000/svg" xmlns:xlink="http://www.w3.org/1999/xlink" x="0px" y="0px"
	 viewBox="0 0 511.993 511.993" style="enable-background:new 0 0 511.993 511.993;" xml:space="preserve">
<linearGradient id="SVGID_1_" gradientUnits="userSpaceOnUse" x1="69.654" y1="448.2119" x2="416.1364" y2="101.7296" gradientTransform="matrix(1.0449 0 0 -1.0449 2.1993 543.3086)">
	<stop  offset="0" style="stop-color:#FF597A"/>
	<stop  offset="1" style="stop-color:#BD0019"/>
</linearGradient>
<circle style="fill:url(#SVGID_1_);" cx="255.996" cy="255.996" r="255.996"/>
<linearGradient id="SVGID_2_" gradientUnits="userSpaceOnUse" x1="61.2312" y1="274.9672" x2="424.5652" y2="274.9672" gradientTransform="matrix(1.0449 0 0 -1.0449 2.1993 543.3086)">
	<stop  offset="0" style="stop-color:#FFFFFF"/>
	<stop  offset="0.31" style="stop-color:#FCFCFC"/>
	<stop  offset="0.573" style="stop-color:#F2F1F3"/>
	<stop  offset="0.818" style="stop-color:#E1E0E3"/>
	<stop  offset="1" style="stop-color:#CFCDD3"/>
</linearGradient>
<path style="fill:url(#SVGID_2_);" d="M255.999,66.18c-104.667,0-189.821,85.154-189.821,189.82S151.333,445.82,255.999,445.82
	c104.668,0,189.821-85.154,189.821-189.821S360.667,66.18,255.999,66.18z M255.999,115.986c27.275,0,52.748,7.847,74.295,21.391
	L137.376,330.296c-13.544-21.548-21.391-47.021-21.391-74.295C115.985,178.796,178.795,115.986,255.999,115.986z M255.999,396.015
	c-27.275,0-52.748-7.847-74.295-21.391l192.92-192.919c13.544,21.548,21.391,47.02,21.391,74.295
	C396.015,333.204,333.205,396.015,255.999,396.015z"/>
<g>
</g>
<g>
</g>
<g>
</g>
<g>
</g>
<g>
</g>
<g>
</g>
<g>
</g>
<g>
</g>
<g>
</g>
<g>
</g>
<g>
</g>
<g>
</g>
<g>
</g>
<g>
</g>
<g>
</g>
</svg>
